# xmcd CD database file
#
# Track frame offsets:
# 150
# 13605
# 35232
# 50589
# 66789
#
# Disc length: 1064 seconds
#
# Revision: 0
# Processed by: cddbd v1.4PL0 Copyright (c) Steve Scherf et al.
# Submitted via: jack 2.99.3
#
DISCID=41042605
DTITLE=Puretonic - Everything Is Cool
DYEAR=1900
DGENRE=
TTITLE0=Everything Is Cool
TTITLE1=Favourite Things
TTITLE2=Valerie
TTITLE3=Missings
TTITLE4=Cigarettes and Hemmingway
EXTD=
EXTT0=
EXTT1=
EXTT2=
EXTT3=
EXTT4=
PLAYORDER=
